<svg xmlns="http://www.w3.org/2000/svg" viewBox="0 0 128 128" style="enable-background:new 0 0 128 128" xml:space="preserve">
  <rect x="4" y="4" width="120" height="120" rx="15%" ry="15%" fill="white"/>
  <path fill="black" d="M64 16c-26.5 0-48 21.5-48 48 0 21.2 13.8 39.2 32.9 45.5 2.4.5 3.3-1 3.3-2.3 0-1.1 0-4.1-.1-8.1-13.4 2.9-16.2-6.4-16.2-6.4-2.2-5.5-5.3-7-5.3-7-4.4-3 .3-2.9.3-2.9 4.8.3 7.3 4.9 7.3 4.9 4.3 7.3 11.2 5.2 13.9 4 .4-3.1 1.7-5.2 3-6.4-10.7-1.2-21.9-5.3-21.9-23.7 0-5.2 1.9-9.5 5-12.8-.5-1.2-2.2-6.1.5-12.7 0 0 4.1-1.3 13.3 5 3.9-1.1 8-1.6 12.1-1.6 4.1 0 8.2.5 12.1 1.6 9.2-6.2 13.3-5 13.3-5 2.6 6.6.9 11.5.5 12.7 3.1 3.4 5 7.6 5 12.8 0 18.4-11.2 22.5-21.9 23.7 1.7 1.5 3.3 4.5 3.3 9.1 0 6.6-.1 11.9-.1 13.5 0 1.3.9 2.8 3.3 2.3C98.2 103.2 112 85.2 112 64c0-26.5-21.5-48-48-48z"/>
</svg>
